<svg width="228" height="229" viewBox="0 0 228 229" fill="none" xmlns="http://www.w3.org/2000/svg">
<path d="M114 0C176.96 0 228 51.2634 228 114.5C228 177.737 176.96 229 114 229C51.0395 229 0 177.737 0 114.5C0 51.2634 51.0395 0 114 0ZM154.17 126.115C149.143 123.843 143.226 126.071 140.945 131.091C140.947 131.088 140.949 131.085 140.95 131.082L140.912 131.162C140.856 131.276 140.754 131.482 140.604 131.766C140.305 132.334 139.818 133.21 139.141 134.291C137.775 136.47 135.688 139.395 132.847 142.322C127.177 148.163 118.904 153.657 107.385 153.983C95.8499 154.311 87.5999 149.385 81.9717 144.081C79.1339 141.407 77.0375 138.692 75.6641 136.662C74.9827 135.655 74.4932 134.838 74.1934 134.311C74.0441 134.048 73.9435 133.858 73.8896 133.756L73.8486 133.679C73.8508 133.683 73.8539 133.689 73.8574 133.696C73.8593 133.7 73.8611 133.705 73.8633 133.709C73.8644 133.711 73.8675 133.715 73.8682 133.716L73.8672 133.717C71.4458 128.757 65.4634 126.696 60.501 129.114C55.5363 131.533 53.4726 137.52 55.8916 142.484L64.8818 138.104C56.173 142.347 55.903 142.484 55.8965 142.492C55.8973 142.494 55.8989 142.499 55.9004 142.502L55.9336 142.568C55.9508 142.603 55.9711 142.645 55.9951 142.692C56.0431 142.787 56.1051 142.908 56.1807 143.052C56.332 143.34 56.5393 143.725 56.8037 144.19C57.3321 145.121 58.0936 146.385 59.0977 147.869C61.0957 150.823 64.116 154.736 68.2539 158.636C76.5774 166.48 89.7203 174.493 107.952 173.976C126.2 173.458 139.117 164.577 147.197 156.253C151.231 152.098 154.158 147.991 156.088 144.911C157.058 143.363 157.791 142.052 158.297 141.092C158.55 140.611 158.749 140.216 158.893 139.921C158.964 139.774 159.022 139.651 159.067 139.555C159.09 139.507 159.109 139.465 159.125 139.431C159.133 139.413 159.14 139.398 159.146 139.384C159.15 139.377 159.153 139.37 159.155 139.364C159.157 139.361 159.158 139.357 159.159 139.355C159.161 139.351 159.163 139.347 150.758 135.548L159.163 139.347C161.438 134.314 159.202 128.39 154.17 126.115ZM67.5 77C58.9396 77 52 83.9396 52 92.5C52 101.06 58.9396 108 67.5 108C76.0604 108 83 101.06 83 92.5C83 83.9396 76.0604 77 67.5 77ZM136.5 72C127.94 72 121 78.9396 121 87.5C121 96.0604 127.94 103 136.5 103C145.06 103 152 96.0604 152 87.5C152 78.9396 145.06 72 136.5 72Z" fill="#FF4E00"/>
</svg>
