<svg width="19" height="19" viewBox="0 0 19 19" fill="none" xmlns="http://www.w3.org/2000/svg">
<g clip-path="url(#clip0_1530_174)">
<path d="M5.9132 2.01557C6.26153 2.0449 6.52341 2.34587 6.50432 2.6949L6.48307 3.08353C6.47227 3.28101 6.62949 3.44706 6.82726 3.44706H6.88141C7.04052 3.44706 7.17896 3.33815 7.21642 3.18352L7.3401 2.67302C7.42757 2.31198 7.73657 2.04762 8.1068 2.01708L8.25248 2.00507C8.41505 1.99166 8.54596 1.86614 8.56619 1.70428L8.57313 1.64877C8.59742 1.45446 8.45515 1.27896 8.26001 1.26253L8.01453 1.24186C7.78101 1.22219 7.60602 1.0195 7.62064 0.785617L7.64685 0.366207C7.65926 0.167761 7.50165 0 7.30282 0H7.24249C7.08753 0 6.95161 0.103408 6.91027 0.252757L6.80671 0.626923C6.71035 0.975095 6.40705 1.2262 6.04701 1.2559L5.88045 1.26964C5.71789 1.28304 5.58697 1.40856 5.56674 1.57042L5.55424 1.67045C5.53299 1.84048 5.65747 1.99403 5.82822 2.00841L5.9132 2.01557Z" fill="black"/>
<path d="M0.314429 6.8195C1.11228 6.86063 1.72405 7.54357 1.67748 8.34112L1.66328 8.58416C1.64402 8.91405 1.90636 9.19216 2.23682 9.19216H2.29015C2.57098 9.19216 2.81065 8.98914 2.85683 8.71213L2.91891 8.33981C3.05963 7.49578 3.76915 6.86366 4.62377 6.82093C4.88258 6.80799 5.0924 6.60652 5.11582 6.34844L5.12732 6.22178C5.15093 5.9617 4.95337 5.73424 4.69254 5.7212L4.51223 5.71218C3.82035 5.67759 3.28983 5.0848 3.33192 4.39334L3.35984 3.93459C3.37593 3.67026 3.1659 3.44706 2.90108 3.44706H2.81127C2.5356 3.44706 2.29879 3.64286 2.24699 3.91362L2.18548 4.23519C2.02669 5.06521 1.32095 5.67905 0.476936 5.72125C0.203369 5.73493 -0.018405 5.94788 -0.0431675 6.22067L-0.0584899 6.38947C-0.0787513 6.61267 0.0906069 6.80796 0.314429 6.8195Z" fill="black"/>
<path d="M9.62027 15.2554C9.74313 12.7662 7.83627 10.6434 5.3482 10.4996C4.94568 10.4763 4.65142 10.1103 4.71512 9.71217L4.75165 9.48389C4.81116 9.11194 5.12083 8.83112 5.49681 8.80815L5.62196 8.8005C8.23902 8.6406 10.3817 6.66036 10.7471 4.06401L10.993 2.31687C11.0408 1.97659 11.332 1.72353 11.6756 1.72353H11.917C12.3103 1.72353 12.6239 2.0521 12.6056 2.44502L12.5264 4.14674C12.4135 6.56977 14.2777 8.6295 16.7 8.75806L17.6402 8.80796C18.0415 8.82925 18.3396 9.18786 18.2872 9.58628L18.2603 9.79079C18.2096 10.1761 17.8907 10.47 17.5026 10.4893L16.9624 10.516C14.1066 10.6574 11.7513 12.8022 11.3439 15.6323L11.1156 17.2186C11.0667 17.5579 10.776 17.8098 10.4332 17.8098H10.2185C9.82437 17.8098 9.51047 17.48 9.52989 17.0864L9.62027 15.2554Z" fill="black"/>
</g>
<defs>
<clipPath id="clip0_1530_174">
<rect width="18.3843" height="18.3843" fill="white"/>
</clipPath>
</defs>
</svg>
