<svg width="19" height="19" viewBox="0 0 19 19" fill="none" xmlns="http://www.w3.org/2000/svg">
<path fill-rule="evenodd" clip-rule="evenodd" d="M11.7292 13.5072C11.9199 13.311 12.2147 13.2566 12.4773 13.333C12.683 13.3929 12.9005 13.425 13.1254 13.425C13.9423 13.425 14.6603 13.0018 15.0723 12.3627C15.1947 12.1728 15.3937 12.0388 15.6178 12.0106C17.2143 11.8094 18.4491 10.4467 18.4491 8.79566C18.4491 7.6422 17.8464 6.62949 16.9388 6.05524C16.6978 5.90273 16.5624 5.61856 16.587 5.33436C16.5939 5.25457 16.5974 5.17381 16.5974 5.09222C16.5974 3.90167 15.8483 2.88606 14.7958 2.49097C14.6201 2.42502 14.4736 2.29509 14.3936 2.12536C13.8011 0.869247 12.5232 0 11.0422 0C10.1814 0 9.38922 0.293682 8.76033 0.786317C8.53076 0.966152 8.20802 0.989399 7.95146 0.850742C7.49375 0.603363 6.96974 0.46293 6.41293 0.46293C4.81835 0.46293 3.49278 1.61467 3.22271 3.13165C3.1671 3.44404 2.91244 3.69725 2.60184 3.7621C1.34154 4.02524 0.394852 5.14257 0.394852 6.48101C0.394852 7.62604 1.08771 8.60925 2.07705 9.03425C2.25344 9.11002 2.39513 9.2517 2.4709 9.42809C2.82123 10.2436 3.55085 10.8577 4.43776 11.0483C4.6895 11.1024 4.90754 11.2798 4.9634 11.5311L5.18136 12.5119C5.38202 13.4149 5.35402 14.3537 5.0999 15.2431L4.80969 16.2589C4.65867 16.7874 4.83904 17.3528 5.32846 17.6031C5.83436 17.8619 6.59046 18.1681 7.59676 18.3625C8.2479 18.4882 8.85893 18.0576 9.04112 17.4199L9.18327 16.9224C9.48964 15.8501 10.1117 14.8949 10.9684 14.1809L11.302 13.9029C11.4516 13.7782 11.5942 13.6461 11.7292 13.5072ZM6.65373 10.4232C6.38788 10.4803 6.22663 10.7407 6.28121 11.0071C6.33204 11.2551 6.39729 11.5128 6.47055 11.8021C6.4896 11.8773 6.50922 11.9548 6.52925 12.0347C6.57326 12.2103 6.69612 12.3559 6.86251 12.4272L6.99642 12.4846C7.30535 12.617 7.66147 12.4571 7.76775 12.1382L8.13901 11.0244C8.24924 10.6938 8.04082 10.3389 7.69241 10.3285C7.28979 10.3164 6.93571 10.3625 6.65373 10.4232ZM10.2676 11.2197C9.9726 11.0189 9.58278 11.1838 9.477 11.5246L9.09209 12.7649C9.01819 13.003 9.14826 13.2566 9.38481 13.3354C9.54946 13.3903 9.7305 13.3469 9.85696 13.228C9.97778 13.1145 10.098 13.0065 10.2166 12.9C10.4336 12.7051 10.6452 12.5152 10.845 12.3047C10.9618 12.1816 10.9815 12.0007 10.928 11.8397C10.9036 11.766 10.8642 11.6967 10.8068 11.6443C10.6564 11.5069 10.4778 11.3628 10.2676 11.2197Z" fill="black"/>
</svg>
